<svg id="Layer_1" data-name="Layer 1" xmlns="http://www.w3.org/2000/svg" viewBox="0 0 500 350"><title>Artboard 1 copy 11</title><path d="M221.53,174.52A63.53,63.53,0,1,1,158,111a63.51,63.51,0,0,1,63.53,63.52"/><path d="M326.26,174.52a44.46,44.46,0,1,1-44.46-44.46,44.48,44.48,0,0,1,44.46,44.46"/><path d="M378.53,174.52a31.14,31.14,0,0,0-31.14-31.14,30.41,30.41,0,0,0-6.66.74v60.81a30.61,30.61,0,0,0,6.66.73,31.14,31.14,0,0,0,31.14-31.14"/><path d="M406.33,144.12a30.39,30.39,0,0,0-13.33,0v60.81a30.79,30.79,0,0,0,13.33,0Z"/></svg>