<svg id="Layer_1" data-name="Layer 1" xmlns="http://www.w3.org/2000/svg" viewBox="0 0 500 350"><title>Artboard 1 copy 4</title><g id="Page-1"><g id="partner.red-bull"><g id="Page-1-2" data-name="Page-1"><g id="partner.red-bull-2" data-name="partner.red-bull"><g id="Page-1-3" data-name="Page-1"><g id="Woodward-Homepage-2"><g id="Partners-Copy"><g id="redBull"><path id="Fill-1" d="M224.46,142.91v-.31c-.31,0-.78.15-.94.15a4.51,4.51,0,0,1-2.18.47h-.47l.94,2.18.15.32v0a7.57,7.57,0,0,1,2.5-2.81Z"/><path id="Fill-3" d="M287.65,143.06a5,5,0,0,1-2.18-.46c-.32,0-.63-.16-.94-.16v.31a7.65,7.65,0,0,1,2.5,2.81v0l.15-.31.94-2.19h-.47"/><g id="Group-7"><g id="Fill-5-Clipped"><path id="Fill-5" d="M285.94,154.25h0a3.24,3.24,0,0,1-2.5,1.24,1.22,1.22,0,0,1-.78-.15h-.15a4.67,4.67,0,0,1-2-.47,21.76,21.76,0,0,0-2.34-.62,9.38,9.38,0,0,0-2.5-.63h-2a7.23,7.23,0,0,1-4.83-1.71,11,11,0,0,1-7.65,3.43c-.78,0-1.4-.16-2.18-.16,0,0-1.25,0-1.41-1.09s1.25-1.56,1.25-1.56h-.47a10.91,10.91,0,0,1-2.18-.31s-1.41-.78-1.41-1.72,1.25-1.71,1.25-1.71a9.34,9.34,0,0,0,3.28-2.35,11.88,11.88,0,0,1,3.59-5,10.92,10.92,0,0,1,1.56-4.68c.47-1.87.62-3,.78-3.43a25.76,25.76,0,0,0,.62-2.81,11.94,11.94,0,0,1,2.34-7.18,22.58,22.58,0,0,1,4.06-5.15c.47-.46,1.87-2.18,3-3.43a38,38,0,0,1,5.78-4.83,17.66,17.66,0,0,0,2.65-2.34l.16-.16a20.64,20.64,0,0,1,4.05-2,41.09,41.09,0,0,0-32.76-16.23,40.37,40.37,0,0,0-32.92,16.54,9.9,9.9,0,0,1,3.12,1.72l.31.31c1.09,1.09,2.65,2.34,2.65,2.34a37.37,37.37,0,0,1,5.77,4.84,33,33,0,0,1,3,3.43,20.22,20.22,0,0,1,4.05,5.15,11.62,11.62,0,0,1,2.35,7.18,19.86,19.86,0,0,0,.62,2.81c.16.62.62,2.65.78,3.43a13.68,13.68,0,0,1,1.56,4.68,13.64,13.64,0,0,1,3.59,5,9.14,9.14,0,0,0,3.27,2.34,1.56,1.56,0,0,1,1.25,1.72,1.87,1.87,0,0,1-1.4,1.87,5.37,5.37,0,0,1-2.19.31h-.46c.31,0,1.24.16,1.09,1.41-.16.93-1.41,1.24-1.41,1.24a10,10,0,0,1-2.18.16,11,11,0,0,1-7.65-3.43,7.46,7.46,0,0,1-4.83,1.71h-2a9.78,9.78,0,0,0-2.5.63c-.62.15-2,.62-2.34.62a5.12,5.12,0,0,1-2,.47h-.15a6.44,6.44,0,0,0-.78.16,3.08,3.08,0,0,1-2.5-1.25,4,4,0,0,1-.78-2l-.62.94a41.1,41.1,0,0,0,66.46.78l-1.24-2a4.12,4.12,0,0,1-.94,2"/></g></g><path id="Fill-8" d="M390.62,188.94h-.93v-2.5h1.25c1.4,0,1.4.78,1.4,1.25,0,.62-.47,1.25-1.72,1.25m1.25.62a1.87,1.87,0,0,0,1.56-1.87,2.17,2.17,0,0,0-2.49-2.19H388.6v8.12h1.09v-3.75h.93a.9.9,0,0,1,.94.63l1.41,3h1.09l-1.41-3.28a3.59,3.59,0,0,0-.78-.62"/><g id="Group-12"><g id="Fill-10-Clipped"><path id="Fill-10" d="M391.14,195.44a5.93,5.93,0,1,1,5.92-5.93,5.93,5.93,0,0,1-5.92,5.93m0-12.8a6.93,6.93,0,0,0-6.87,6.87,6.87,6.87,0,0,0,13.73,0,6.93,6.93,0,0,0-6.86-6.87"/></g></g><path id="Fill-13" d="M154.87,153.21a17.37,17.37,0,0,0,1.88-2.19.77.77,0,0,0-.47-1.25,1.51,1.51,0,0,0-1.41.32,8.82,8.82,0,0,1-2,1.4s-1.25.47-.32,1.4a1.6,1.6,0,0,0,2.34.32"/><path id="Fill-15" d="M152.07,154.61c-.32-.31-.47-.62-.94-.78-1.72-.78-1.72,2-1.72,2a6,6,0,0,1-.46,1.71,2.68,2.68,0,0,0-.32,1.1c.32,1.09,2.66.78,2.66.78a21.35,21.35,0,0,1,.93-3.75c.31-.78-.15-1.09-.15-1.09"/><path id="Fill-17" d="M219,117.63c.62-.93,1.25.16,1.25.16,2.34,3.12.62,7.8.62,7.8-.15-4.37-2-6.4-2-6.4-.31-.47-.15-.93.16-1.56m13.42,30.74a2.69,2.69,0,0,1,1.25-1.72c1.87-1.09,2,0,2,0,.32,2-1.24,2.19-1.24,2.19a8,8,0,0,1-1.72.15c-.31-.15-.47-.31-.31-.62m.62-12.64c.31-.47,1.41-2.81,1.41-2.81.15-.31.31-.78.31-.78.93-1.4,1.87-.31,1.87-.31.47.78,2.5,3.28,2.5,3.28a2,2,0,0,1,.46,1.09c.47,3.43-1.24,3.74-1.24,3.74,0-.93.15-3-.78-3.74l-1.72-1.72c-.16-.31-.31-.31-.31-.31-.31,0-.63.63-.63.63-.93,1.87-2,1.71-2,1.71a3.31,3.31,0,0,1,.15-.78m-12.17,11.55a6,6,0,0,1-.78-1.25l-1.25-3a3.19,3.19,0,0,0-1.09-1.09l-1.71.16a42.29,42.29,0,0,0,2,4.21s1.25,1.72,1.1,3a1.45,1.45,0,0,1-.47,1.09,9.63,9.63,0,0,0-.63.93,4.11,4.11,0,0,1-.93,1.41,5.11,5.11,0,0,1-.94.47s-.31.15-.15-.47a10.76,10.76,0,0,0,.93-3.12,2,2,0,0,0-.62-1.72,35.85,35.85,0,0,1-2.19-3.9s-.62-1.25-.93-1.4a.77.77,0,0,1,.47-1.25,21.64,21.64,0,0,0,3.12-.94s1.24-.31,2-3a20.15,20.15,0,0,0,1.1-5,8.23,8.23,0,0,1-1.25,8.59s2.81.78,3.9,0c0,0,3.43-.47,4.21-.63,0,0,.94-.15.31.47a6.31,6.31,0,0,0-1.09,2.5,1.54,1.54,0,0,1-.78,1.24s-2,1.41-2.18,2.66c0,0-.47,1.25.46.93,0,0,1.25-.62,1.56,0,0,0,.16,0-.31.63a3.8,3.8,0,0,0-1.25,2.49,5.93,5.93,0,0,0,.63,2.19,1.19,1.19,0,0,0,1.4.47s.16-.16.63,0a6.53,6.53,0,0,0,1.56-.32s1.71-.46,2.18-.62a14.65,14.65,0,0,1,3.12-.78,10.19,10.19,0,0,1,1.56.16,5.33,5.33,0,0,0,4.37-1.72s1.4-1.09,1.87,0c0,0,3.28,4.37,8.43,3.12,0,0-4.21-1.72-5.31-4.06a9.34,9.34,0,0,0-2.34-4.68s-.62-.93,0-1.09c0,0,.32-.31,1.25.47a16.6,16.6,0,0,1,2.81,3.74s2.5,3.9,6.24,2.5c0,0-3-1.09-4.21-3.12a9.62,9.62,0,0,0-3.75-4.84,11.75,11.75,0,0,0-1.4-5s-.62-3-.78-3.74a26,26,0,0,1-.78-3.28,8.86,8.86,0,0,0-2-6.09,17.78,17.78,0,0,0-3.74-4.83,33.18,33.18,0,0,0-3.12-3.44,32.15,32.15,0,0,0-5.47-4.68,29,29,0,0,1-3-2.49s-6.55-4.68-11.39-.94a26.12,26.12,0,0,1-6.08,3s-5.62.62-8.12,4.52c0,0-.15.78-2.49.94a10,10,0,0,0-8.74,4.37,8.73,8.73,0,0,1-5.15,2,11.11,11.11,0,0,0-9.05,3.59s-9,7.8-14.51,2.81c0,0-2.81-2.65.47-7.49a31.46,31.46,0,0,1,5.46-5s2.81-2,1.56-5c0,0-.62-3-4.84-3,0,0-5.3-1.09-7.49-3.74,0,0-2.34,8.42,7,8.27,0,0,2.49.31,1.56,2.34a6.6,6.6,0,0,1-2.81,2.18,8.5,8.5,0,0,0-4.06,5.31s-2.81,7.17,4.06,10c2.65.94,5.77.63,8.58.16a14.18,14.18,0,0,0,1.4,7.49s1.41,1.87,0,3.12l-2.81,1.56s-.31.31-1.56.15c0,0-1.71-.47-2.34.31a22,22,0,0,1-1.09,2.66s-1.25,2.81-3.28,3.74a2.94,2.94,0,0,0-2.18,1.87,2.2,2.2,0,0,1-1.56,1.1s-.78.31-1.4,2a8.66,8.66,0,0,0-.32,2,6,6,0,0,1,2.19.16s2.18.78,3.12-1.09c0,0,1.87-3.28,3.28-2.81a5,5,0,0,0,4.83-1.09s2.81-3,6.56-2.34c0,0,4.36.93,5.77-.16,0,0,2.81-1.4,3.74-1.72a2,2,0,0,0,1.41-1.71s.78-1.88,1.24-2.66h-2a10,10,0,0,1-5.15,4.06,12.31,12.31,0,0,1-5.31.16s-5-1.09-9.51,3.59c0,0-.63.93-1.41.46a12,12,0,0,1,7.8-5.14,13.39,13.39,0,0,1,3.28-.16A12.13,12.13,0,0,0,183,142.28s-.31-6.08,1.25-7.48c0,0,.62-.16.46.93,0,0-1.09,6.4.94,7.49a4.8,4.8,0,0,0,3.43.62,18.52,18.52,0,0,1,6.09-.31,26.41,26.41,0,0,0,7.8.47,5.3,5.3,0,0,1-.78-3.12s.47-1.25,1.09-.47c0,0,1.41,4.53,5.15,5.93a5.46,5.46,0,0,1,3.28,5.46s-.47.63-5,2.19c0,0-1.71.46-2.18-.78,0,0-2.18-4.68-4.06-4.53l-3.59.31s-1.24.32-.31,1.25a19.72,19.72,0,0,1,1.72,2.5s.15.78,1.25.62c0,0,1.56-.78,2.49,2.19a4.45,4.45,0,0,0,2.19,1.87,3,3,0,0,0,2.49-.31s5.93-2.19,6.87-3a2.87,2.87,0,0,1,2.34-.31,2.25,2.25,0,0,0,2.5-.94l1.87-2.8a2.15,2.15,0,0,0,.31-1.56c.94.46,1.09-.47.31-1.25"/><path id="Fill-19" d="M359.42,155.86s0-2.65-1.72-2a4.28,4.28,0,0,0-.93.78.7.7,0,0,0-.16.94s1.09,2.8.94,3.74c0,0,2.34.47,2.65-.78a2.69,2.69,0,0,0-.31-1.09c.15,0-.31-.47-.47-1.56"/><path id="Fill-21" d="M356.14,151.65a10.34,10.34,0,0,1-2-1.41,1.51,1.51,0,0,0-1.41-.31.77.77,0,0,0-.47,1.25,17,17,0,0,0,1.88,2.18,1.79,1.79,0,0,0,2.34-.15.89.89,0,0,0-.32-1.56"/><path id="Fill-23" d="M290.15,119.19s-1.72,2-2,6.4c0,0-1.72-4.68.62-7.8,0,0,.63-1.09,1.25-.16.31.63.47,1.09.16,1.56m-13.89,29.65a7.54,7.54,0,0,1-1.72-.16,1.72,1.72,0,0,1-1.24-2.18s.15-1.1,2,0a2.65,2.65,0,0,1,1.25,1.71c.16.47,0,.63-.31.63m-4.84-12.48c-.93.78-.93,2.8-.78,3.74,0,0-1.71-.31-1.24-3.74a1.72,1.72,0,0,1,.46-1.1,24.33,24.33,0,0,0,2.5-3.27s.94-1.1,1.87.31c0,0,.16.47.31.78l1.41,2.81a1.94,1.94,0,0,1,.15.78s-.93.15-2-1.72c0,0-.32-.62-.63-.62,0,0-.15,0-.31.31l-1.72,1.72m82.85,18.87a1.84,1.84,0,0,1-1.56-1.09,3.26,3.26,0,0,0-2.18-1.71c-2-.94-3.28-3.75-3.28-3.75a24.27,24.27,0,0,1-1.09-2.65c-.63-.78-2.34-.31-2.34-.31-1.25.15-1.56-.16-1.56-.16L339.45,144c-1.4-1.25,0-3.12,0-3.12a14.33,14.33,0,0,0,1.4-7.49c2.81.47,5.93.78,8.58-.16,7-2.8,4.06-10,4.06-10a8.5,8.5,0,0,0-4.06-5.31,8,8,0,0,1-2.8-2.18c-.78-1.87,1.56-2.34,1.56-2.34,9.36.16,7-8.27,7-8.27-2.19,2.65-7.49,3.75-7.49,3.75-4.21.15-4.84,3-4.84,3a4.2,4.2,0,0,0,1.56,5,31.72,31.72,0,0,1,5.46,5c3.28,4.83.47,7.48.47,7.48-5.46,5.15-14.51-2.8-14.51-2.8a11.07,11.07,0,0,0-9.05-3.59,10.1,10.1,0,0,1-5.15-2,10.53,10.53,0,0,0-8.73-4.37c-2.34-.31-2.5-.94-2.5-.94-2.34-3.9-8.11-4.52-8.11-4.52a20.75,20.75,0,0,1-6.09-3c-4.84-3.75-11.39.93-11.39.93a29.83,29.83,0,0,1-3,2.5,31.21,31.21,0,0,0-5.46,4.68c-1.25,1.25-3.12,3.43-3.12,3.43a17.9,17.9,0,0,0-3.75,4.84,9.88,9.88,0,0,0-2,6.08,20.43,20.43,0,0,1-.78,3.28c-.15.62-.78,3.74-.78,3.74-1.25,1.72-1.4,5-1.4,5a10.86,10.86,0,0,0-3.75,4.83,10.38,10.38,0,0,1-4.21,3.12c3.75,1.25,6.24-2.49,6.24-2.49a13.21,13.21,0,0,1,2.81-3.75c.78-.78,1.25-.47,1.25-.47.62.32,0,1.1,0,1.1-2.19,2.81-2.34,4.68-2.34,4.68-1.09,2.34-5.31,4-5.31,4,5.15,1.1,8.43-3.12,8.43-3.12.47-1.09,1.87,0,1.87,0a6,6,0,0,0,4.37,1.72,10.29,10.29,0,0,1,1.56-.16,12.3,12.3,0,0,1,3.12.78c.62.16,2.18.63,2.18.63a6.72,6.72,0,0,0,1.56.31c.47-.16.63,0,.63,0a1.32,1.32,0,0,0,1.4-.47,5.21,5.21,0,0,0,.63-2.18,4.78,4.78,0,0,0-1.25-2.5c-.47-.47-.31-.62-.31-.62.47-.63,1.56,0,1.56,0,.93.31.47-.94.47-.94-.16-1.4-2.19-2.65-2.19-2.65a2.32,2.32,0,0,1-.78-1.25,10.17,10.17,0,0,0-1.09-2.5c-.47-.62.31-.46.31-.46.62.15,4.21.62,4.21.62,1.1.78,3.9,0,3.9,0a7.84,7.84,0,0,1-1.24-8.58,20.31,20.31,0,0,0,1.09,5c.78,2.65,2,3,2,3a21,21,0,0,0,3.12.93c1.09.47.46,1.25.46,1.25a5.48,5.48,0,0,0-.93,1.4,34.54,34.54,0,0,1-2.19,3.91,2,2,0,0,0-.62,1.71,10.67,10.67,0,0,0,.94,3.12c.31.63-.16.47-.16.47a5.11,5.11,0,0,1-.94-.47,4.26,4.26,0,0,1-.93-1.4,10.2,10.2,0,0,0-.63-.94,2.67,2.67,0,0,1-.46-1.09,8.44,8.44,0,0,1,1.09-3,23,23,0,0,0,2-4.21l-1.72-.15a3.29,3.29,0,0,0-1.09,1.09l-1.25,3a6,6,0,0,1-.78,1.25,2.21,2.21,0,0,0-.62,1.72,3.84,3.84,0,0,0,.31,1.56l1.87,2.81a2.25,2.25,0,0,0,2.5.93,4.08,4.08,0,0,1,2.34.31,64.8,64.8,0,0,0,6.86,3,4,4,0,0,0,2.5.31,4.46,4.46,0,0,0,2.18-1.87c.94-3,2.5-2.19,2.5-2.19,1.09.16,1.25-.62,1.25-.62a19,19,0,0,1,1.71-2.5c.94-.93-.31-1.24-.31-1.24l-3.59-.32c-1.87-.15-4,4.53-4,4.53-.47,1.25-2.19.78-2.19.78-4.52-1.56-5-2.19-5-2.19a5.68,5.68,0,0,1,3.28-5.46c3.74-1.4,5.14-5.93,5.14-5.93.63-.78,1.1.47,1.1.47a5.38,5.38,0,0,1-.78,3.12,26.45,26.45,0,0,0,7.8-.47,18.11,18.11,0,0,1,6.08.32,4.81,4.81,0,0,0,3.43-.63c2-1.25.94-7.49.94-7.49-.16-1.09.47-.93.47-.93,1.56,1.4,1.25,7.49,1.25,7.49a12,12,0,0,0,10.61,6.86,8.59,8.59,0,0,1,3.27.16,12,12,0,0,1,7.8,5.15,1.19,1.19,0,0,1-1.4-.47,10.73,10.73,0,0,0-9.52-3.59,10.16,10.16,0,0,1-5.3-.16,10.8,10.8,0,0,1-5.15-4.05h-2a9.29,9.29,0,0,1,1.25,2.65,2,2,0,0,0,1.4,1.72,31.14,31.14,0,0,1,3.75,1.71c1.4.94,5.77.16,5.77.16a7.75,7.75,0,0,1,6.55,2.34,5,5,0,0,0,4.84,1.09c1.4-.47,3.28,2.81,3.28,2.81.93,1.87,3.12,1.09,3.12,1.09a6,6,0,0,1,2.18-.16,8.78,8.78,0,0,0-.31-2c.31-2.34-.47-2.66-.47-2.66"/><g id="Fill-25-Clipped"><polygon id="Fill-25" points="348.97 242.29 360.04 242.29 360.04 183.32 348.97 183.32 348.97 242.29"/></g><g id="Fill-27-Clipped"><polygon id="Fill-27" points="367.85 242.29 378.77 242.29 378.77 183.32 367.85 183.32 367.85 242.29"/></g><g id="Fill-28-Clipped"><path id="Fill-28" d="M342.41,207.81H331v19.66s.16,6.71-6.24,6.71c-6.24,0-6.71-6.71-6.71-6.71V207.81H306.84v19.82c0,2.5-.47,16.54,18.26,16.54s17.16-15.92,17.16-15.92V207.81Z"/></g><g id="Fill-29-Clipped"><path id="Fill-29" d="M224,233.25c-.62,0-7.8.15-7.8-8.74s8-9.21,8-9.21,8.89.31,8.89,8.9-8.42,9.05-9,9.05Zm8.58-23.1s-5.46-4.21-11.54-4.21c-6.24,0-16.7,4.37-16.7,17.94,0,13.73,8.9,18.88,16.54,18.88a16.23,16.23,0,0,0,11.86-5v4.52h11.08v-59H232.57v26.83Z"/></g><g id="Fill-30-Clipped"><path id="Fill-30" d="M160.65,203c0-14.51-10.14-18.41-23.72-18.41h-14.2v57.72h11.71v-46.8h5.46s8.58-.31,8.58,7.49-7.65,7.64-7.65,7.64h-2.65v13.26l11.7,18.41h13.73l-16.38-23.71s13.42-1.09,13.42-15.6"/></g><g id="Fill-31-Clipped"><path id="Fill-31" d="M175,220.45s.78-6.55,7-6.55,6.87,6.55,6.87,6.55Zm7.18-14.51c-18.72,0-19,17.32-19,19.19,0,2,.32,18.26,20,18.26,6.25,0,11.86-2.5,16.07-8.74l-9-4.37s-2.5,4.53-7.18,4.53-8.27-3.59-8.27-7.65h25.43v-3c.16,0,.94-18.26-17.94-18.26Z"/></g><g id="Fill-32-Clipped"><path id="Fill-32" d="M284.53,232.47H274.08V195.64h5.61s7.65-.62,7.65,6.09a5.6,5.6,0,0,1-6.09,6.08h-3.43v10h6.87c1.71,0,7.48.94,7.48,7.33-.15,6.4-7.64,7.34-7.64,7.34m9.36-20.91A15,15,0,0,0,299,200c0-7.49-5.46-14.35-17.16-14.35H262.22v56.63H286.4s17.32-.15,17.32-15.75c0-9-3.59-12.49-9.83-15"/></g></g></g></g></g></g></g></g></g></svg>