<svg id="Group_311" data-name="Group 311" xmlns="http://www.w3.org/2000/svg" viewBox="0 0 346.588 345.4">
  <defs>
    <style>
      .cls-1 {
        fill: #fff;
      }

      .cls-2 {
        fill: #303030;
      }
    </style>
  </defs>
  <g id="Group_308" data-name="Group 308" transform="translate(0 27.456)">
    <path id="Path_247" data-name="Path 247" class="cls-1" d="M146.431,16.2A59.564,59.564,0,0,0,86.943,75.688h0c0,1.695.169,3.39.169,5.084H72.537V78.738a3.835,3.835,0,0,0-3.9-3.9H46.268a3.835,3.835,0,0,0-3.9,3.9v2.2A46.753,46.753,0,0,0,0,127.379v132.7a46.8,46.8,0,0,0,46.607,46.607H164.9V80.772H105.925c-.169-1.695-.339-3.39-.339-5.084h0a40.867,40.867,0,0,1,40.845-40.845H164.9V16.2Z" transform="translate(0 -16.2)"/>
  </g>
  <path id="Path_248" data-name="Path 248" class="cls-1" d="M101,0V309.471h0V345.4h4.406v-35.93h0V0Z" transform="translate(70.175)"/>
  <g id="Group_310" data-name="Group 310" transform="translate(181.683 27.456)">
    <path id="Path_249" data-name="Path 249" class="cls-1" d="M191.967,57V54.8a3.835,3.835,0,0,0-3.9-3.9H165.7a3.835,3.835,0,0,0-3.9,3.9v2.034h25.93A18.1,18.1,0,0,1,191.967,57Z" transform="translate(-69.264 7.91)"/>
    <path id="Path_250" data-name="Path 250" class="cls-1" d="M125.773,16.2H107.3V34.843h18.473a40.867,40.867,0,0,1,40.845,40.845h0c0,1.695-.169,3.39-.339,5.084h18.643c.169-1.695.169-3.39.169-5.084h0A59.311,59.311,0,0,0,125.773,16.2Z" transform="translate(-107.131 -16.2)"/>
    <g id="Group_309" data-name="Group 309" transform="translate(41.014 129.991)">
      <path id="Path_251" data-name="Path 251" class="cls-2" d="M143.433,97.476Q150.551,92.9,160.72,92.9c8.982,0,16.44,2.2,22.541,6.44,5.932,4.237,8.982,10.677,8.982,19.151a21.667,21.667,0,0,1-3.9,13.05c-1.525,2.2-4.406,4.915-8.643,8.3l-4.237,3.22a12.313,12.313,0,0,0-4.576,6.271,31.065,31.065,0,0,0-.847,7.118h-16.27c.169-6.779.847-11.355,1.864-14.067,1.017-2.542,3.729-5.593,7.966-8.813l4.406-3.39a13.486,13.486,0,0,0,3.39-3.559,12.48,12.48,0,0,0,2.373-7.288,13.542,13.542,0,0,0-2.712-8.3c-1.695-2.542-5.084-3.729-9.66-3.729s-7.966,1.525-9.83,4.576a18.335,18.335,0,0,0-2.881,9.66H131.4C132.078,110.356,135.976,102.221,143.433,97.476Zm10,67.453H171.4v17.287H153.432Z" transform="translate(-131.4 -92.9)"/>
    </g>
    <path id="Path_252" data-name="Path 252" class="cls-1" d="M107.369,61.01H225.5a25.031,25.031,0,0,1,3.559.169,40.192,40.192,0,0,1,36.269,39.658v132.7A39.89,39.89,0,0,1,225.5,273.368H107.2v6.779H225.5A46.8,46.8,0,0,0,272.1,233.54V101.007a46.887,46.887,0,0,0-42.37-46.438A34.037,34.037,0,0,0,225.5,54.4H107.369Z" transform="translate(-107.2 10.341)"/>
  </g>
</svg>
