<svg xmlns="http://www.w3.org/2000/svg" viewBox="0 0 367.951 362">
  <defs>
    <style>
      .cls-1 {
        fill: #2b2b2b;
      }

      .cls-2 {
        fill: #fff;
      }
    </style>
  </defs>
  <g id="Group_301" data-name="Group 301" transform="translate(0.063)">
    <g id="Group_284" data-name="Group 284" transform="translate(-0.062 40.372)">
      <path id="Path_217" data-name="Path 217" class="cls-1" d="M87.82,355.375c-19.38,0-38.521-7.3-56.346-21.892A88.361,88.361,0,0,1,.132,272.711a72.161,72.161,0,0,1,18.423-54.192c25.481-27.993,46.3-37.564,66.395-46.895,9.81-4.546,19.859-9.211,30.745-16.15C142.013,138.845,165.341,108.1,170.6,89.8c4.546-15.552-2.273-38.162-5.264-45.579a7.62,7.62,0,0,1,14.116-5.742c.479,1.316,12.681,31.822,5.742,55.508-7.058,24.285-34.095,56.944-61.49,74.29-11.724,7.417-22.251,12.322-32.539,16.987-19.38,9.331-37.8,17.944-61.251,43.545-13.4,14.714-15.313,31.463-14.475,42.827a72.352,72.352,0,0,0,25.84,50.005c20.816,17.107,53.833,31.223,92.594.957,34.573-27.036,70.223-98.1,70.582-98.814a7.6,7.6,0,1,1,13.638,6.7c-1.555,2.991-37.564,75.008-74.888,104.078C125.5,348.557,106.6,355.375,87.82,355.375Z" transform="translate(0.062 -33.747)"/>
    </g>
    <g id="Group_285" data-name="Group 285" transform="translate(193.303 9.323)">
      <path id="Path_218" data-name="Path 218" class="cls-2" d="M167.108,133.532a4.07,4.07,0,0,1-1.2-.12,5.477,5.477,0,0,1-4.187-6.58c12.92-58.379,25.481-107.428,48.45-116.161,24.4-9.331,46.656,6.939,47.493,7.656a5.422,5.422,0,0,1,1.077,7.776,5.654,5.654,0,0,1-7.776,1.2h0c-.239-.12-18.423-13.279-36.966-6.221-19.26,7.3-33.257,70.462-41.631,108.265A5.393,5.393,0,0,1,167.108,133.532Z" transform="translate(-161.574 -7.793)"/>
    </g>
    <g id="Group_286" data-name="Group 286" transform="translate(294.702 44.609)">
      <path id="Path_219" data-name="Path 219" class="cls-2" d="M251.2,175.953a5.141,5.141,0,0,1-3.35-1.316,4.878,4.878,0,0,1-.239-6.819c56.944-60.293,61.49-76.324,62.208-95.7.6-15.432-26.558-25.242-26.917-25.362a4.881,4.881,0,0,1,3.23-9.212c1.436.479,34.214,12.2,33.377,34.932-.718,21.653-5.5,39.239-64.72,101.925A5.186,5.186,0,0,1,251.2,175.953Z" transform="translate(-246.335 -37.29)"/>
    </g>
    <g id="Group_287" data-name="Group 287" transform="translate(181.542 125.943)">
      <path id="Path_220" data-name="Path 220" class="cls-1" d="M195.356,223.02a54.418,54.418,0,0,1-21.653-4.666c-38.042-16.03-15.672-98.216-13.04-107.547a7.649,7.649,0,1,1,14.714,4.187c-5.742,20.217-17.466,80.032,4.307,89.244a41.469,41.469,0,0,0,15.791,3.469c21.055,0,40.076-18.782,64.839-50.962a7.6,7.6,0,1,1,12.083,9.212C249.908,195.386,225.5,223.02,195.356,223.02Z" transform="translate(-151.743 -105.277)"/>
    </g>
    <g id="Group_288" data-name="Group 288" transform="translate(165 42.487)">
      <path id="Path_221" data-name="Path 221" class="cls-2" d="M149.142,62.055a8.435,8.435,0,0,1-8.015-5.981l-2.871-9.929a8.29,8.29,0,0,1,15.911-4.666l2.871,9.929A8.336,8.336,0,0,1,151.415,61.7,7.512,7.512,0,0,1,149.142,62.055Z" transform="translate(-137.916 -35.516)"/>
    </g>
    <g id="Group_291" data-name="Group 291" transform="translate(139.74)">
      <g id="Group_289" data-name="Group 289" transform="translate(4.905 4.905)">
        <circle id="Ellipse_9" data-name="Ellipse 9" class="cls-2" cx="22.849" cy="22.849" r="22.849"/>
      </g>
      <g id="Group_290" data-name="Group 290">
        <path id="Path_222" data-name="Path 222" class="cls-1" d="M144.554,9.69A18.064,18.064,0,1,1,126.49,27.754,18.125,18.125,0,0,1,144.554,9.69m0-9.69a27.754,27.754,0,1,0,27.754,27.754A27.774,27.774,0,0,0,144.554,0Z" transform="translate(-116.8)"/>
      </g>
    </g>
    <g id="Group_292" data-name="Group 292" transform="translate(162.948 23.208)">
      <circle id="Ellipse_10" data-name="Ellipse 10" class="cls-1" cx="4.546" cy="4.546" r="4.546"/>
    </g>
    <g id="Group_296" data-name="Group 296" transform="translate(263.236 4.225)">
      <g id="Group_293" data-name="Group 293" transform="translate(3.11 6.221)">
        <path id="Path_223" data-name="Path 223" class="cls-1" d="M242.333,28.074a6.371,6.371,0,0,1-2.871-.718l-13.4-6.819a6.233,6.233,0,1,1,5.623-11.126l13.4,6.819a6.267,6.267,0,0,1-2.751,11.843Z" transform="translate(-222.632 -8.732)"/>
      </g>
      <g id="Group_294" data-name="Group 294" transform="translate(0.479 1.077)">
        <path id="Path_224" data-name="Path 224" class="cls-1" d="M226.734,27.123a6.371,6.371,0,0,1-2.871-.718,6.188,6.188,0,0,1-2.751-8.374l5.144-10.169a6.233,6.233,0,1,1,11.126,5.623l-5.144,10.169A5.986,5.986,0,0,1,226.734,27.123Z" transform="translate(-220.432 -4.432)"/>
      </g>
      <g id="Group_295" data-name="Group 295">
        <path id="Path_225" data-name="Path 225" class="cls-1" d="M226.334,28.257a6.371,6.371,0,0,1-2.871-.718,6.221,6.221,0,0,1-2.751-8.374l6.221-12.2a6.233,6.233,0,0,1,11.126,5.623l-6.221,12.2A5.986,5.986,0,0,1,226.334,28.257Z" transform="translate(-220.032 -3.532)"/>
      </g>
    </g>
    <g id="Group_300" data-name="Group 300" transform="translate(328.09 43.478)">
      <g id="Group_297" data-name="Group 297">
        <path id="Path_226" data-name="Path 226" class="cls-1" d="M293.452,56.389a5.8,5.8,0,0,1-3.11-.837L277.3,47.9a6.2,6.2,0,0,1,6.34-10.647l12.92,7.656a6.139,6.139,0,0,1,2.153,8.494A5.975,5.975,0,0,1,293.452,56.389Z" transform="translate(-274.244 -36.344)"/>
      </g>
      <g id="Group_298" data-name="Group 298" transform="translate(10.169 2.751)">
        <path id="Path_227" data-name="Path 227" class="cls-1" d="M288.912,60.843a5.8,5.8,0,0,1-3.11-.837,6.139,6.139,0,0,1-2.153-8.494l5.742-9.81a6.2,6.2,0,1,1,10.647,6.34l-5.742,9.81A6.313,6.313,0,0,1,288.912,60.843Z" transform="translate(-282.744 -38.644)"/>
      </g>
      <g id="Group_299" data-name="Group 299" transform="translate(9.57 1.794)">
        <path id="Path_228" data-name="Path 228" class="cls-1" d="M288.412,61.957a5.8,5.8,0,0,1-3.11-.837,6.139,6.139,0,0,1-2.153-8.494L290.087,40.9a6.2,6.2,0,1,1,10.647,6.34L293.8,58.966A6.313,6.313,0,0,1,288.412,61.957Z" transform="translate(-282.244 -37.844)"/>
      </g>
    </g>
  </g>
</svg>
