<svg id="Layer_1" data-name="Layer 1" xmlns="http://www.w3.org/2000/svg" xmlns:xlink="http://www.w3.org/1999/xlink" viewBox="0 0 500 350"><defs><style>.cls-1,.cls-2,.cls-3{fill:none;}.cls-2,.cls-3{clip-path:url(#clip-path);}.cls-2{clip-rule:evenodd;}.cls-4{clip-path:url(#clip-path-3);}.cls-5{clip-path:url(#clip-path-4);}</style><clipPath id="clip-path"><rect class="cls-1" x="54" y="134" width="392.88" height="81.51"/></clipPath><clipPath id="clip-path-3"><path class="cls-2" d="M93.94,215.51c22.06,0,39.94-18.25,39.94-40.76S116,134,93.94,134,54,152.25,54,174.75s17.88,40.76,39.94,40.76Z"/></clipPath><clipPath id="clip-path-4"><path class="cls-3" d="M183.79,160.27a7.64,7.64,0,0,0,7.81-5.84h6.73c-1.08,7.09-7.05,12-14.54,12-9,0-15.75-7-15.75-16.23S174.83,134,183.79,134c7.49,0,13.46,4.93,14.54,12H191.6a7.65,7.65,0,0,0-7.81-5.85c-5.53,0-9.15,4.47-9.15,10.05s3.62,10.05,9.15,10.05ZM223.57,134c9.3,0,15.92,6.76,15.92,16.22s-6.62,16.23-15.92,16.23-15.92-6.77-15.92-16.23S214.27,134,223.57,134Zm-.39,26.11c5.43,0,9.32-4.2,9.32-9.89s-3.89-9.89-9.32-9.89-9.32,4.14-9.32,9.89,3.9,9.89,9.32,9.89Zm48.94-9.49v-5.54h52v5.54Zm-78.57,33.24h7.11l-14.15,30.86h-5.88l-14.15-30.86h7.11l10,22.12,10-22.12Zm27.12-.8c9.89,0,16,7.82,14.78,18.26H212c.64,4.67,3.49,8.21,9.07,8.21,2.92,0,5.14-.92,6.34-2.89h7.23c-1.9,5.59-7.16,8.87-13.63,8.87-9.39,0-15.73-7-15.73-16.22s6.28-16.23,15.35-16.23Zm-.4,5.54c-5.05,0-8,3.49-8.74,7.92h17.09c-.39-5.17-3.62-7.92-8.35-7.92Zm41.83-5.54c7.81,0,13.12,5.52,13.12,14.45v17.21h-6.66V197.91c0-5.65-2.94-8.67-7.81-8.67-2.88,0-6,1.64-8.38,4.66v20.82h-6.66V183.85h6.66v2.76a14.34,14.34,0,0,1,9.73-3.55Zm44,25,1,6.2a18.66,18.66,0,0,1-6.82,1.24c-7.66,0-11.74-4.7-11.74-12.59V189.74h-7.07v-5.68h7.07V172.78h6.64v11.28h11.09v5.68H295.15v13.18c0,4.43,2.16,6.33,5.86,6.33a13.33,13.33,0,0,0,5.1-1.18Zm32.41-24.21h6.61v30.86h-6.61v-3a14,14,0,0,1-9.82,3.81c-7.83,0-13.09-5.71-13.09-14.58V183.86h6.61v16.68c0,5.64,3,8.8,7.83,8.8,2.95,0,6-1.71,8.47-4.86V183.86Zm25.72,4.08a14.48,14.48,0,0,1,11.18-4.88v6.47a13.76,13.76,0,0,0-11.18,5.67v19.52h-6.69v-31h6.69v4.22ZM397,183.06c9.9,0,16,7.82,14.78,18.26h-23.4c.63,4.67,3.48,8.21,9.07,8.21,2.91,0,5.13-.92,6.34-2.89H411c-1.9,5.59-7.17,8.87-13.64,8.87-9.38,0-15.73-7-15.73-16.22s6.28-16.23,15.35-16.23Zm-.4,5.54c-5,0-8,3.49-8.73,7.92h17.08c-.38-5.17-3.62-7.92-8.35-7.92Zm29.28,16c.71,3.81,3.47,5.38,8,5.38,3.93,0,6.62-1.31,6.62-3.74,0-1.83-1.47-3.14-4-3.6l-6.69-1.18c-4.63-.79-8.93-3.15-8.93-8.72,0-6,5.08-9.64,12.59-9.64,5.85,0,12.6,2,13.24,10.1h-6.17c-.32-3.34-3.21-4.66-7.07-4.66s-6,1.45-6,3.61c0,1.64,1.15,3.21,4.69,3.8l5.66.92c4.56.85,9.06,2.88,9.06,8.85,0,6.49-5.59,9.83-13.18,9.83-7.13,0-13.24-2.88-14-11l6.17.06Z"/></clipPath></defs><title>Artboard 1</title><g class="cls-4"><rect x="45.85" y="125.85" width="96.18" height="97.81"/></g><g class="cls-5"><rect x="158.33" y="125.85" width="296.7" height="97.81"/></g></svg>