<?xml version="1.0" encoding="utf-8"?>
<!-- Generator: Adobe Illustrator 23.1.1, SVG Export Plug-In . SVG Version: 6.00 Build 0)  -->
<svg version="1.1" id="Layer_1" xmlns="http://www.w3.org/2000/svg" xmlns:xlink="http://www.w3.org/1999/xlink" x="0px" y="0px"
	 viewBox="0 0 500 350" style="enable-background:new 0 0 500 350;" xml:space="preserve">
<style type="text/css">
	.st0{fill:none;}
</style>
<title>Artboard 1</title>
<g>
	<path class="st0" d="M396.6,188.6c-5,0-8,3.5-8.7,7.9H405C404.6,191.3,401.3,188.6,396.6,188.6z"/>
	<path class="st0" d="M435.1,215.5h11.8v-9.8C446.9,211.8,442,215.1,435.1,215.5z"/>
	<path class="st0" d="M220.3,188.6c-5.1,0-8,3.5-8.7,7.9h17.1C228.2,191.3,225,188.6,220.3,188.6z"/>
	<ellipse class="st0" cx="223.2" cy="150.2" rx="9.3" ry="9.9"/>
	<path d="M133.9,174.8c0-22.5-17.9-40.8-39.9-40.8S54,152.2,54,174.8s17.9,40.8,39.9,40.8S133.9,197.3,133.9,174.8z"/>
	<path d="M168,150.2c0,9.2,6.8,16.2,15.8,16.2c7.5,0,13.5-4.9,14.5-12h-6.7c-0.9,3.6-4.1,6-7.8,5.8l0,0c-5.5,0-9.2-4.5-9.2-10
		c0-5.6,3.6-10.1,9.2-10.1c3.7-0.2,6.9,2.3,7.8,5.9h6.7c-1.1-7.1-7-12-14.5-12C174.8,134,168,141,168,150.2z"/>
	<path d="M207.7,150.2c0,9.5,6.6,16.2,15.9,16.2s15.9-6.8,15.9-16.2c0-9.5-6.6-16.2-15.9-16.2S207.7,140.8,207.7,150.2z
		 M223.2,140.3c5.4,0,9.3,4.2,9.3,9.9s-3.9,9.9-9.3,9.9c-5.4,0-9.3-4.1-9.3-9.9S217.8,140.3,223.2,140.3z"/>
	<polygon points="220.3,188.6 220.3,188.6 220.3,188.6 	"/>
	<path d="M234.6,206.6h-7.2c-1.2,2-3.4,2.9-6.3,2.9c-5.6,0-8.4-3.5-9.1-8.2h23.5c1.2-10.4-4.9-18.3-14.8-18.3h0
		c-9.1,0-15.3,7-15.3,16.2c0,9.2,6.3,16.2,15.7,16.2C227.5,215.5,232.7,212.2,234.6,206.6z M220.3,188.6L220.3,188.6L220.3,188.6
		L220.3,188.6c4.7,0,8,2.8,8.3,7.9h-17.1C212.3,192.1,215.2,188.6,220.3,188.6z"/>
	<polygon points="396.6,188.6 396.6,188.6 396.6,188.6 	"/>
	<rect x="272.1" y="145.1" width="52" height="5.5"/>
	<polygon points="306.1,208.1 306.1,208.1 306.1,208.1 	"/>
	<path d="M301,209.2c-3.7,0-5.9-1.9-5.9-6.3v-13.2h11.1v-5.7h-11.1v-11.3h-6.6v11.3h-7.1v5.7h7.1v13.2c0,7.9,4.1,12.6,11.7,12.6
		c2.3,0,4.6-0.4,6.8-1.2l-1-6.2C304.5,208.8,302.8,209.2,301,209.2z"/>
	<path d="M252.4,193.9c2.4-3,5.5-4.7,8.4-4.7c4.9,0,7.8,3,7.8,8.7v16.8h6.7v-17.2c0-8.9-5.3-14.5-13.1-14.5c-3.6-0.1-7,1.2-9.7,3.5
		v-2.8h-6.7v30.9h6.7V193.9z"/>
	<path d="M411,206.6h-7.2c-1.2,2-3.4,2.9-6.3,2.9c-5.6,0-8.4-3.5-9.1-8.2h23.4c1.2-10.4-4.9-18.3-14.8-18.3h0
		c-9.1,0-15.3,7-15.3,16.2c0,9.2,6.3,16.2,15.7,16.2C403.8,215.5,409.1,212.2,411,206.6z M396.6,188.6L396.6,188.6L396.6,188.6
		L396.6,188.6c4.7,0,8,2.8,8.3,7.9h-17.1C388.6,192.1,391.6,188.6,396.6,188.6z"/>
	<path d="M338.5,214.7h6.6v-30.9h-6.6l0,0v20.6c-2.5,3.2-5.5,4.9-8.5,4.9c-4.8,0-7.8-3.2-7.8-8.8v-16.7h-6.6v17.1
		c0,8.8,5.2,14.5,12.9,14.6h0.5c3.5,0,6.9-1.4,9.5-3.8V214.7z"/>
	<path d="M437.8,196.9l-5.7-0.9c-3.5-0.6-4.7-2.2-4.7-3.8c0-2.2,2.1-3.6,6-3.6c3.9,0,6.8,1.3,7.1,4.7h6.2
		c-0.6-8.1-7.4-10.1-13.2-10.1c-7.5,0-12.6,3.6-12.6,9.6c0,5.6,4.3,7.9,8.9,8.7l6.7,1.2c2.5,0.5,4,1.8,4,3.6c0,2.4-2.7,3.7-6.6,3.7
		c-4.5,0-7.3-1.6-8-5.4l0,0l-6.2-0.1c0.7,7.6,6.1,10.6,12.6,11h2.8c6.9-0.4,11.8-3.7,11.8-9.8C446.9,199.8,442.4,197.7,437.8,196.9z
		"/>
	<polygon points="183.6,206 173.6,183.9 166.5,183.9 180.6,214.7 186.5,214.7 200.7,183.9 193.6,183.9 	"/>
	<path d="M364.2,195.2c2.6-3.6,6.8-5.7,11.2-5.7V183c-4.3-0.1-8.4,1.7-11.2,4.9v-4.2h-6.7v31h6.7V195.2z"/>
</g>
</svg>
