<svg id="Layer_1" data-name="Layer 1" xmlns="http://www.w3.org/2000/svg" viewBox="0 0 500 350"><title>Artboard 1 copy</title><path d="M103.89,151.13A17.85,17.85,0,1,0,122,169,17.86,17.86,0,0,0,103.89,151.13Zm0,26.67a8.83,8.83,0,1,1,9-8.83A8.83,8.83,0,0,1,103.89,177.8Z"/><rect x="358.98" y="155.63" width="9.14" height="31.53"/><rect x="358.98" y="138.58" width="9.14" height="9.02"/><path d="M414,178.07v9a18,18,0,0,1-18.07-17.84v-8.78h-5.79v-9h5.79v-13h9.14v13h8.86v9h-8.86v8.78A8.9,8.9,0,0,0,414,178.07Z"/><path d="M165,151.45v9h-4.82a8.92,8.92,0,0,0-8.9,8v18.61H142.1V151.45h9.23v2.33a18,18,0,0,1,8.92-2.33H165Z"/><path d="M208.27,151.46v2.75a17.85,17.85,0,1,0,0,30.19v2.73h9.15V151.46Zm-9.63,26.68a8.83,8.83,0,1,1,9-8.83,8.85,8.85,0,0,1-9,8.83Z"/><path d="M273.34,158.86a1.22,1.22,0,0,0,0,.27ZM242.6,168.5v.36h0v-.6a1.1,1.1,0,0,0,0,.18Z"/><path d="M260.7,151.43a18.11,18.11,0,0,0-8.93,2.33v-2.33h-9.16v35.72h9.13V168.63a9,9,0,0,1,17.87.17v18.35h9.13V168.84h0A18.05,18.05,0,0,0,260.7,151.43Zm12.64,7.7a1.22,1.22,0,0,1,0-.27h0Z"/><path d="M325.94,151.45v2.41a18.1,18.1,0,0,0-9-2.41,17.86,17.86,0,0,0,0,35.71h.15a18.18,18.18,0,0,0,8.82-2.35v8.53a9,9,0,0,1-17.91,0H298.9a18.08,18.08,0,0,0,36.15.57V151.45Zm-9,26.69a8.83,8.83,0,1,1,9-8.83A8.83,8.83,0,0,1,317,178.14Z"/><path d="M335.06,193.88h0v-.54A3.25,3.25,0,0,1,335.06,193.88Z"/></svg>