<svg id="Layer_1" data-name="Layer 1" xmlns="http://www.w3.org/2000/svg" viewBox="0 0 500 350"><title>Artboard 1 copy 7</title><path d="M351.23,150.75h0a21.87,21.87,0,0,0-9.53,41.55,20.55,20.55,0,0,0,9.56,2.35H373V172.52a21.84,21.84,0,0,0-21.76-21.77Zm12.94,34.95h-13a4.83,4.83,0,0,1-1.15-.13,6.27,6.27,0,0,0-1.41-.24,13.22,13.22,0,0,1-10.41-12.81,13,13,0,0,1,26,0V185.7Z"/><path d="M176.8,150.75h0a21.87,21.87,0,0,0-9.53,41.55,20.58,20.58,0,0,0,9.56,2.35h21.77V172.52a21.83,21.83,0,0,0-21.76-21.77Zm12.94,34.95h-13a4.8,4.8,0,0,1-1.14-.13,6.27,6.27,0,0,0-1.41-.24,13.22,13.22,0,0,1-10.41-12.81,13,13,0,1,1,26,0V185.7Z"/><path d="M143,154.62v-.12a15.36,15.36,0,0,0-2.34-1.29l-.1,0a.11.11,0,0,0-.11-.12h0c-.24-.12-.6-.24-.84-.35a19.83,19.83,0,0,0-8.09-1.69h-13.3V137.45h-9v35.44a21.78,21.78,0,1,0,33.82-18.22Zm-12,31.2a13.06,13.06,0,0,1-12.94-13.06V159.82H131.4a14.21,14.21,0,0,1,2.38.26,13.2,13.2,0,0,1,10.31,12.81,13,13,0,0,1-13,12.93Z"/><path d="M233.57,164.54a12.81,12.81,0,0,0-10-4.85h-.11a12.93,12.93,0,0,0-12.81,12.94v22.15h-9.07l.12-22.14a21.91,21.91,0,0,1,21.77-21.76h.06a21.38,21.38,0,0,1,14.7,5.81,19.45,19.45,0,0,0-4.61,7.85Z"/><path d="M323.3,160.19a21.4,21.4,0,0,1,3.87,12.33v22.13h-8.83V172.59a13.27,13.27,0,0,0-2.46-7.72c0-.09-.09-.09-.21-.21a1.51,1.51,0,0,0-.6-.6c-.13-.12-.13-.24-.25-.35a6,6,0,0,0-.83-.84,14,14,0,0,0-6.33-3.25,7,7,0,0,1-1.59-.28c-.44,0-.8-.11-1.29-.11H292v30.59c.25,6.17-8.94,6.78-8.94-.12V150.15h21.77a20.33,20.33,0,0,1,9.52,2.35,21.93,21.93,0,0,1,8.91,7.6Z"/><path d="M270.82,150.39H258a20.89,20.89,0,0,0-9.56,2.35,21.83,21.83,0,1,0,31.2,19.78h.12V150.39Zm-.12,22.13A13,13,0,1,1,255,159.71a7,7,0,0,0,1.58-.27,4.89,4.89,0,0,1,1.07-.11h13v13.18Z"/></svg>