<svg id="Layer_1" data-name="Layer 1" xmlns="http://www.w3.org/2000/svg" viewBox="0 0 500 350"><defs><style>.cls-1{fill-rule:evenodd;}</style></defs><title>Artboard 1 copy 9</title><rect x="68" y="185.63" width="185.47" height="11.28"/><path class="cls-1" d="M83.24,151.07a6.71,6.71,0,0,0,4.31-6.45c0-4.65-3.23-8.05-9.15-8.05H67.64v29.9H79.29c5.57,0,9.33-3.58,9.33-8.42a7.39,7.39,0,0,0-5.38-7Zm-9.86-9.49H77.5c2.87,0,4.31,1.43,4.31,3.76s-1.62,3.76-4.31,3.76H73.38v-7.52ZM78,161.82H73.38v-7.88h4.84c2.87,0,4.48,1.61,4.48,3.94s-1.79,3.94-4.66,3.94Z"/><polygon class="cls-1" points="92.93 136.03 98.49 136.03 98.49 166.65 92.93 166.65 92.93 136.03"/><path class="cls-1" d="M123.24,145.88h-5.56v12a3.8,3.8,0,0,1-4,4.11c-2.69,0-3.76-1.79-3.76-4.11v-12h-5.56V159c0,4.48,2.87,8.24,7.89,8.24,2.15,0,4.66-.9,5.74-2.87a6.73,6.73,0,0,0,.18,2.15h5.38c0-.72-.18-2.15-.18-3.76V145.88Zm14.71-.72c-5.38,0-10.22,4.3-10.22,10.93,0,7,5,11.1,10.76,11.1,5.2,0,8.43-3.05,9.51-6.63l-4.67-1.43a4.75,4.75,0,0,1-4.66,3.22c-2.87,0-5.2-2-5.2-4.65h14.88v-1.79c-.18-6.63-3.94-10.75-10.4-10.75Zm-4.66,8.78a4.55,4.55,0,0,1,4.66-4.12c3.23,0,4.48,2,4.66,4.12Zm31.21-8.6a7.72,7.72,0,0,0-6.46,3v-2.51h-5.38v28.83h5.56v-10a7.12,7.12,0,0,0,5.92,2.51c5.92,0,9.86-4.66,9.86-10.93s-3.4-10.92-9.5-10.92M163.42,162c-2.87,0-5.2-2.14-5.2-5.9s2.33-5.91,5.2-5.91,5.2,2.14,5.2,5.91-2.33,5.9-5.2,5.9m20.63-13.07v-3h-5.38v20.77h5.56v-9.49c0-4.48,2.51-5.91,5.38-5.91a4.89,4.89,0,0,1,1.61.18V145.7H190c-1.79,0-4.66.54-5.92,3.22m14-13.43a3.45,3.45,0,0,0-3.41,3.58,3.54,3.54,0,0,0,3.41,3.41,3.41,3.41,0,0,0,3.41-3.41,3.57,3.57,0,0,0-3.41-3.58"/><polygon class="cls-1" points="195.17 145.88 200.73 145.88 200.73 166.65 195.17 166.65 195.17 145.88"/><path class="cls-1" d="M218.31,145.34a6.81,6.81,0,0,0-5.92,3v-2.51H207v20.77h5.56v-12c0-2.33,1.44-4.3,4-4.3,2.69,0,3.76,1.8,3.76,4.12v12.18h5.56V153.58c0-4.66-2.33-8.24-7.53-8.24m20.09-5.73h-5v2.87a3,3,0,0,1-3.23,3.22h-1.08v5h3.77v9.67c0,3.94,2.51,6.45,6.64,6.45a9.62,9.62,0,0,0,3.23-.54v-4.65c-.36,0-1.08.18-1.8.18-1.61,0-2.51-.54-2.51-2.33v-8.78h4.13v-5H238.4v-6.09Zm33.36,1.79c4.85,0,7.36,3,8.08,5.73l5.56-2c-1.44-4.65-5.92-9.13-13.64-9.13a15.11,15.11,0,0,0-15.42,15.58c0,9.67,6.81,15.58,14.89,15.58,4.48,0,7.53-2,8.79-4.12l.35,3.4H285V150.89H270.15v5h9.51c-.36,2.14-2.51,5.91-8.08,5.91-5,0-9.5-3.59-9.5-10.21.18-7,5.2-10.21,9.68-10.21m27.63,3.76c-5.38,0-10.23,4.3-10.23,10.93,0,7,5,11.1,10.77,11.1,5.2,0,8.43-3.05,9.5-6.63l-4.66-1.43a4.75,4.75,0,0,1-4.66,3.22c-2.87,0-5.21-2-5.21-4.65h14.89v-1.79c0-6.63-3.94-10.75-10.4-10.75Zm-4.49,8.78a4.56,4.56,0,0,1,4.67-4.12c3.23,0,4.48,2,4.66,4.12Zm30.68-8.6a6.78,6.78,0,0,0-5.92,3v-2.51h-5.38v20.77h5.56v-12c0-2.33,1.43-4.3,3.94-4.3,2.69,0,3.77,1.8,3.77,4.12v12.18h5.56V153.58c0-4.66-2.33-8.24-7.53-8.24m21.88-.18c-5.38,0-10.22,4.3-10.22,10.93,0,7,5,11.1,10.76,11.1,5.2,0,8.43-3.05,9.51-6.63l-4.67-1.43a4.75,4.75,0,0,1-4.66,3.22c-2.87,0-5.2-2-5.2-4.65h14.88v-1.79c0-6.63-3.94-10.75-10.4-10.75ZM343,153.94a4.55,4.55,0,0,1,4.66-4.12c3.23,0,4.48,2,4.66,4.12Zm26.18-14.33h-5v2.87a3,3,0,0,1-3.23,3.22h-1.07v5h3.76v9.67c0,3.94,2.52,6.45,6.64,6.45a9.56,9.56,0,0,0,3.23-.54v-4.65c-.36,0-1.08.18-1.79.18-1.62,0-2.52-.54-2.52-2.33v-8.78h4.13v-5h-4.13v-6.09ZM381,135.49a3.44,3.44,0,0,0-3.4,3.58,3.53,3.53,0,0,0,3.4,3.41,3.41,3.41,0,0,0,3.41-3.41,3.56,3.56,0,0,0-3.41-3.58"/><polygon class="cls-1" points="378.13 145.88 383.69 145.88 383.69 166.65 378.13 166.65 378.13 145.88"/><path class="cls-1" d="M399.12,162c-2.87,0-5.38-2.14-5.38-5.9s2.33-5.91,5.2-5.91a4.55,4.55,0,0,1,4.66,3.58l5-1.61c-.9-3.59-4.13-7-9.69-7-6.1,0-10.76,4.66-10.76,11.1a10.8,10.8,0,0,0,10.94,11.11,9.62,9.62,0,0,0,9.69-7l-5-1.61a4.5,4.5,0,0,1-4.66,3.22m22.78-8.05-3-.72c-1.07-.18-2-.9-2-1.79a2.45,2.45,0,0,1,2.69-2.15,3.22,3.22,0,0,1,3.41,2.87l4.66-1.08c-.18-2.15-2.15-5.91-8.25-5.91-4.48,0-7.71,3.05-7.71,6.81,0,2.86,1.79,5.37,5.92,6.26l2.69.72c1.61.36,2.15,1.07,2.15,2,0,1.07-.9,2.15-2.69,2.15-2.51,0-3.77-1.43-3.77-3.22l-4.84,1.07c.18,2.33,2.33,6.45,8.61,6.45,5.38,0,8.07-3.41,8.07-6.81.18-3.22-2-5.73-5.92-6.62"/><rect x="270.15" y="185.63" width="157.85" height="11.28"/></svg>