<svg id="Layer_1" data-name="Layer 1" xmlns="http://www.w3.org/2000/svg" xmlns:xlink="http://www.w3.org/1999/xlink" viewBox="0 0 500 350"><defs><style>.cls-1{fill:none;}.cls-2{clip-path:url(#clip-path);}.cls-3{fill:#1d1d1b;}</style><clipPath id="clip-path"><rect class="cls-1" x="48" y="148.93" width="404.2" height="35.65"/></clipPath></defs><title>Artboard 1 copy 6</title><g id="Layer_1-2" data-name="Layer 1-2"><g class="cls-2"><path class="cls-3" d="M62.66,159.08v.06c0,2.71-2.24,4.46-5.72,4.46H51.86v-8.92h5.22c3.55,0,5.58,1.6,5.58,4.4M57.27,151H49.91a1.93,1.93,0,0,0-1.91,1.9v20.68a1.94,1.94,0,0,0,1.91,1.94,2,2,0,0,0,1.94-1.94v-6.38h5c5.8,0,9.7-3.29,9.7-8.18v-.12c0-4.83-3.64-8-9.27-8"/><path class="cls-3" d="M99.69,171.76H87.11v-6.83H98a1.81,1.81,0,0,0,1.81-1.81h0A1.83,1.83,0,0,0,98,161.3H87.11v-6.65H99.52a1.81,1.81,0,1,0,0-3.62H85.16a1.93,1.93,0,0,0-1.91,1.9v20.51a1.94,1.94,0,0,0,1.91,1.94H99.69a1.81,1.81,0,0,0,0-3.62"/><path class="cls-3" d="M133.31,158.62v.07c0,2.51-2.09,4.13-5.32,4.13h-6.47v-8.14H128c3.36,0,5.29,1.43,5.29,3.93M128.22,151h-8.65a1.93,1.93,0,0,0-1.91,1.9v20.68a1.93,1.93,0,1,0,3.86,0v-7.2h5.71l6.31,8.2a2.16,2.16,0,0,0,1.72.94,1.9,1.9,0,0,0,1.38-3.25l-5.15-6.63c3.64-1,5.71-3.56,5.71-7.09v-.06a7,7,0,0,0-2-5,9.74,9.74,0,0,0-7-2.49"/><path class="cls-3" d="M170.57,150.86a2,2,0,0,0-1.94,1.95v12.28c0,4.52-2.25,7-6.34,7s-6.44-2.61-6.44-7.17V152.81a1.93,1.93,0,1,0-3.86,0v12.28c0,6.57,3.92,10.66,10.23,10.66s10.26-4.06,10.26-10.82V152.81a2,2,0,0,0-1.91-1.95"/><path class="cls-3" d="M198.64,161.34c-5.36-1.15-5.78-2.38-5.78-3.88v-.06c0-1.83,1.77-3.11,4.3-3.11a9,9,0,0,1,5.61,1.9,1.9,1.9,0,0,0,3-1.53h0a2,2,0,0,0-.82-1.56,12.37,12.37,0,0,0-7.73-2.4c-4.76,0-8.22,2.92-8.22,6.93v.07c0,4.55,3.3,6.2,8.25,7.28,5.11,1.08,5.51,2.3,5.51,3.78v.07c0,2-1.82,3.3-4.53,3.3a9.92,9.92,0,0,1-6.85-2.56,1.7,1.7,0,0,0-1.23-.48,1.88,1.88,0,0,0-1.88,1.88v0a1.81,1.81,0,0,0,.73,1.48,14.25,14.25,0,0,0,9.14,3.24c5,0,8.51-2.94,8.51-7.16v-.07c0-3.78-2.4-5.92-8-7.15"/><path class="cls-3" d="M239.37,150.93h-16a1.87,1.87,0,0,0-1.85,1.85,1.83,1.83,0,0,0,1.85,1.81h6.08v18.95a1.95,1.95,0,0,0,3.89,0h0V154.62h6.08a1.84,1.84,0,0,0,1.84-1.81,1.85,1.85,0,0,0-1.86-1.88h0"/><path class="cls-3" d="M274.66,171.7H262.07v-6.85H273a1.81,1.81,0,0,0,0-3.62H262.07v-6.64h12.42a1.81,1.81,0,0,0,0-3.62H260.13a1.93,1.93,0,0,0-1.91,1.95h0v20.45a1.94,1.94,0,0,0,1.91,1.94h14.53a1.81,1.81,0,1,0,0-3.62"/><path class="cls-3" d="M308.28,158.55v.07c0,2.51-2.09,4.13-5.32,4.13h-6.48v-8.13H303c3.36,0,5.29,1.43,5.29,3.93m-5.1-7.62h-8.65a1.93,1.93,0,0,0-1.91,1.95v20.66a1.93,1.93,0,1,0,3.86,0v-7.2h5.71l6.31,8.2a2.16,2.16,0,0,0,1.72.94,1.9,1.9,0,0,0,1.38-3.25l-5.15-6.63c3.64-1,5.71-3.56,5.71-7.09v-.06a7,7,0,0,0-2-5,9.74,9.74,0,0,0-7-2.49"/><path class="cls-3" d="M346.55,150.8a2.17,2.17,0,0,0-1.86,1.31l-7.45,17.82-7.42-17.76a2.07,2.07,0,0,0-1.93-1.38,2,2,0,0,0-1.95,1.91,1.87,1.87,0,0,0,.18.84L335,174.1a2.18,2.18,0,0,0,2.1,1.48h.13a2.21,2.21,0,0,0,2.09-1.47l9-20.68a1.83,1.83,0,0,0,.14-.76,1.89,1.89,0,0,0-1.91-1.88"/><path class="cls-3" d="M380.51,171.7H367.93v-6.85h10.93a1.81,1.81,0,0,0,0-3.62H367.93v-6.64h12.42a1.81,1.81,0,0,0,0-3.62H366a1.93,1.93,0,0,0-1.93,1.93v20.48a1.94,1.94,0,0,0,1.92,1.94h14.54a1.81,1.81,0,1,0,0-3.62h0"/><path class="cls-3" d="M444.17,161.28c-5.36-1.15-5.78-2.38-5.78-3.88v-.07c0-1.83,1.77-3.11,4.3-3.11a9,9,0,0,1,5.61,1.9,1.9,1.9,0,0,0,3-1.53h0a2,2,0,0,0-.82-1.56,12.37,12.37,0,0,0-7.73-2.4c-4.76,0-8.22,2.91-8.22,6.93v.07c0,4.55,3.3,6.2,8.25,7.28,5.11,1.08,5.52,2.3,5.52,3.78v.07c0,2-1.82,3.3-4.53,3.3a9.92,9.92,0,0,1-6.85-2.56,1.7,1.7,0,0,0-1.23-.48,1.87,1.87,0,0,0-1.88,1.86v.05a1.81,1.81,0,0,0,.73,1.48,14.25,14.25,0,0,0,9.14,3.24c5,0,8.51-2.94,8.51-7.16v-.07c0-3.78-2.4-5.92-8-7.15"/><path d="M418.42,179.38a1.24,1.24,0,1,1,0-2.48,1.23,1.23,0,0,1,1.24,1.24h0a1.24,1.24,0,0,1-1.24,1.24m-13.54,2.49c-2.09.94-5.11.11-7.53-2a3.74,3.74,0,0,1-.63-.69c1.13-.71,5.66-.67,10.5-.43a4.18,4.18,0,0,1-2.34,3.16m13.54-7.3a3.56,3.56,0,0,0-3.34,2.32c-1.92-.15-3.7-.27-5.34-.37v-6.85c6.22-1.28,9.64-12.33,9.64-15.89a3.89,3.89,0,0,0-3.64-4.16,3.43,3.43,0,0,0-.64,0h-.59a1.93,1.93,0,1,0-3,2.37,1.94,1.94,0,0,0,2.71.34,2.12,2.12,0,0,0,.33-.34h.59c1.77,0,2,1,2,1.78,0,3.3-3.54,13.64-8.52,13.64S400,157.12,400,153.82c0-.76.2-1.78,2-1.78h.59a1.93,1.93,0,1,0,.34-2.71,2.19,2.19,0,0,0-.34.34H402a3.91,3.91,0,0,0-4.27,3.51,4.53,4.53,0,0,0,0,.64c0,3.56,3.41,14.61,9.64,15.89v6.7c-8.14-.43-12-.09-12.88,1.87-.43,1,0,2.11,1.32,3.28a11,11,0,0,0,7.15,3,7.18,7.18,0,0,0,2.86-.59,6.49,6.49,0,0,0,3.73-5.14c1.93.12,3.81.26,5.48.39a3.56,3.56,0,1,0,3.38-4.66"/></g></g></svg>