<svg id="Layer_1" data-name="Layer 1" xmlns="http://www.w3.org/2000/svg" viewBox="0 0 500 350"><title>Artboard 1 copy 10</title><path id="Path_192" data-name="Path 192" d="M390.93,160.72c-.07-1.72-.15-3.3-.29-4.52a24.72,24.72,0,0,0-.5-3.31c-.22-.93-.43-1.87-.72-2.73a19.69,19.69,0,0,0-7.62-10.63,23,23,0,0,0-13.08-3.6,22.49,22.49,0,0,0-12.94,3.6,19.67,19.67,0,0,0-7.61,10.63,18.28,18.28,0,0,0-.72,2.73c-.22,1.08-.36,2.22-.5,3.31s-.22,2.8-.29,4.52-.07,3.88-.07,6.33,0,4.6.07,6.32.14,3.31.29,4.53a24.57,24.57,0,0,0,.5,3.3,27.19,27.19,0,0,0,.72,2.73,19.73,19.73,0,0,0,7.61,10.64,22.81,22.81,0,0,0,12.94,3.59,23.24,23.24,0,0,0,13.08-3.59,22.15,22.15,0,0,0,8.34-13.37c.21-1.07.36-2.22.5-3.3s.22-2.8.29-4.53.07-3.88.07-6.32S391,162.52,390.93,160.72Zm-8.77,11.93c-.07,1.58-.14,2.95-.29,4.1s-.28,2.08-.43,2.87l-.43,1.94a12.22,12.22,0,0,1-4.38,6.33,13.34,13.34,0,0,1-7.91,2.15,13.1,13.1,0,0,1-7.83-2.15,12.17,12.17,0,0,1-4.31-6.33,9.13,9.13,0,0,1-.43-1.86c-.15-.79-.29-1.73-.43-2.88s-.22-2.51-.29-4.1-.07-3.45-.07-5.6,0-4,.07-5.61.14-2.94.29-4.09.28-2.16.43-2.88l.43-1.94a12.15,12.15,0,0,1,4.31-6.32,13.18,13.18,0,0,1,7.83-2.16,13.42,13.42,0,0,1,7.91,2.16A12.23,12.23,0,0,1,381,152.6a10.13,10.13,0,0,1,.43,1.87c.15.78.29,1.8.43,2.88s.22,2.51.29,4.09.07,3.45.07,5.61,0,4-.07,5.6Zm-46-35.78h-6.1a1.15,1.15,0,0,0-1.29,1,.13.13,0,0,0,0,.06v57.92a1.21,1.21,0,0,0,1.08,1.3h6.32a1.16,1.16,0,0,0,1.29-1s0,0,0-.06V138.23a1.17,1.17,0,0,0-1-1.29h-.06A.26.26,0,0,0,336.17,136.87Zm-15.52,0h-6.11A1.55,1.55,0,0,0,313,138l-14.3,44.83L283.78,138a1.55,1.55,0,0,0-1.65-1.15h-6a1.24,1.24,0,0,0-1,.43,1.29,1.29,0,0,0-.07,1.15l19.25,57.48a1.54,1.54,0,0,0,1.44,1.23h5.18a1.47,1.47,0,0,0,1.43-1.15l19.19-57.5a1.21,1.21,0,0,0-.07-1.22,1.1,1.1,0,0,0-.78-.43ZM271.43,156.2a24.47,24.47,0,0,0-.5-3.31c-.22-.93-.44-1.87-.72-2.73a19.69,19.69,0,0,0-7.62-10.63,23,23,0,0,0-13.08-3.6,22.47,22.47,0,0,0-12.94,3.6A19.67,19.67,0,0,0,229,150.16a18.28,18.28,0,0,0-.72,2.73c-.22,1.08-.36,2.22-.51,3.31-.14,1.29-.21,2.8-.28,4.52s-.08,3.88-.08,6.33,0,4.59.08,6.32.14,3.31.28,4.53a24.59,24.59,0,0,0,.51,3.3,27.19,27.19,0,0,0,.72,2.73,19.73,19.73,0,0,0,7.61,10.64,22.81,22.81,0,0,0,12.94,3.59,23.26,23.26,0,0,0,13.08-3.59,19.75,19.75,0,0,0,7.62-10.64,21.07,21.07,0,0,0,.72-2.73c.21-1.08.35-2.22.5-3.3.14-1.3.21-2.81.29-4.53s.07-3.88.07-6.32,0-4.53-.07-6.33S271.5,157.49,271.43,156.2Zm-8.55,16.45c-.07,1.58-.15,2.95-.29,4.1s-.29,2.15-.43,2.87l-.43,1.94a12.27,12.27,0,0,1-4.39,6.33,13.29,13.29,0,0,1-7.9,2.15,13.1,13.1,0,0,1-7.83-2.15,12.13,12.13,0,0,1-4.32-6.33,10.68,10.68,0,0,1-.43-1.86c-.14-.79-.28-1.8-.43-2.88s-.21-2.52-.29-4.1-.07-3.45-.07-5.6,0-4,.07-5.61.15-2.94.29-4.09.29-2.16.43-2.88l.43-1.94a12.07,12.07,0,0,1,4.32-6.32,13.11,13.11,0,0,1,7.83-2.16,13.3,13.3,0,0,1,7.9,2.16,12.25,12.25,0,0,1,4.39,6.32,10,10,0,0,1,.43,1.87c.14.78.29,1.72.43,2.87s.22,2.52.29,4.1.07,3.45.07,5.61S263,171.07,262.88,172.65Zm-54.4-1.79a17.31,17.31,0,0,0,8.34-6,16.66,16.66,0,0,0,3.23-10.49,19.07,19.07,0,0,0-1.37-7.19,15.9,15.9,0,0,0-3.88-5.6,16.44,16.44,0,0,0-6-3.52,21.79,21.79,0,0,0-7.76-1.22H179.45a1.15,1.15,0,0,0-1.29,1v58a1.2,1.2,0,0,0,1.07,1.3h6.33a1.17,1.17,0,0,0,1.29-1V172.08h12.79l11.72,24a1.62,1.62,0,0,0,1.58,1.15h7a1,1,0,0,0,.93-1.65Zm-21.63-7h-.07V145.06h13.94a11.36,11.36,0,0,1,7.83,2.44,8.76,8.76,0,0,1,2.73,7,9,9,0,0,1-2.73,7,11.24,11.24,0,0,1-7.83,2.44Zm-28.6,3.6c4.39-3.66,6.61-8.34,6.76-15,.14-8.26-5.39-16.6-15.16-20.05a63.45,63.45,0,0,0-17.54-3.16,85.64,85.64,0,0,0-15.52.51,30,30,0,0,0-4.31.78c-.36.15-.58.29-.51.43a1.19,1.19,0,0,0,.72.07c.36,0,2.09-.14,5-.14a80.76,80.76,0,0,1,13.08,1.22c12,2,19.27,7.33,18.69,16.24-.51,7-12.58,10.21-23.57,14.59-9.92,4-14.3,8.77-15.52,13.8-1.44,5.67,1.22,11.5,4.45,16.6a39.69,39.69,0,0,0,2.3,3.3,1.05,1.05,0,0,0,.72.51.78.78,0,0,0-.07-.58,21.46,21.46,0,0,1-.58-3.66c-.07-3.52,1.87-6.47,6.47-9.49,3.74-2.37,9.2-4.74,16.89-7.33s13.58-5.17,17.67-8.63Zm6.25,28.88a26.81,26.81,0,0,1-6.82-3.59c-2.66-1.94-5.1-4.53-5.46-7.47-.65-5.17.78-7.62,1.15-8.26a.7.7,0,0,0,.14-.65,1,1,0,0,0-.65,0,26.87,26.87,0,0,0-9.41,5c-2,1.86-3.59,4.16-3.09,7.4.51,3,2.95,5.17,5.46,6.46a24.83,24.83,0,0,0,9.71,2.16,70.86,70.86,0,0,0,8.62-.14,3.44,3.44,0,0,0,1.44-.36,2.4,2.4,0,0,0-1.08-.51Z"/></svg>