<svg id="Layer_1" data-name="Layer 1" xmlns="http://www.w3.org/2000/svg" viewBox="0 0 500 350"><title>Artboard 1 copy 3</title><g id="Group_1" data-name="Group 1"><g id="Group_816" data-name="Group 816"><path id="Path_511" data-name="Path 511" d="M323.24,166.54c-5,0-7.4,4.3-7.4,8.09s2.41,8.08,7.4,8.08c3.61,0,7-2.58,7-8.08s-3.43-8.09-7-8.09"/><path id="Path_512" data-name="Path 512" d="M229.36,166.71A7.33,7.33,0,0,0,222,174c0,.17,0,.33,0,.5a7.4,7.4,0,0,0,14.79.69q0-.34,0-.69a7.43,7.43,0,0,0-7.1-7.73h-.3"/><path id="Path_513" data-name="Path 513" d="M136.18,166.54c-5,0-7.39,4.3-7.39,8.09s2.4,8.08,7.39,8.08c3.61,0,7-2.58,7-8.08-.17-5.5-3.61-8.09-7-8.09"/><path id="Path_514" data-name="Path 514" d="M334.75,186.14h-4.64v-2.75a9.59,9.59,0,0,1-7.22,3.27,11.54,11.54,0,0,1-11.53-11.54c0-.17,0-.33,0-.5a11.66,11.66,0,0,1,11.24-12h.28a9.43,9.43,0,0,1,7.22,3.09V163.1h4.64Zm-43.66-13.92V186h-4.65V172.22c0-5.33-2.58-5.85-3.78-5.85-1,0-4.12.34-4.12,5.85V185.8h-4.65V172c0-5.33-2.58-5.84-3.78-5.84-1,0-4.12.34-4.12,5.84v13.59h-4.65V163.1h4.47v2.58a6,6,0,0,1,5.5-3.09,6.17,6.17,0,0,1,5.84,3.61,7,7,0,0,1,6.36-3.61c3.61,0,7.74,1.89,7.57,9.63m-61.72,14.26a12,12,0,1,1,.15,0h-.15m-35.25-.34h-4.63V174.62c0-4.81-2.92-7.91-6.54-7.91-3.78,0-7.05,2.93-7.22,8.6v10.83h-4.64v-23h4.47v4c1.2-2.75,4.81-4.3,8.09-4.3,5.15,0,10.47,3.09,10.47,11.17Zm-46.59,0h-4.63v-2.75a9.62,9.62,0,0,1-7.22,3.27,11.53,11.53,0,0,1-11.53-11.54c0-.17,0-.33,0-.5a11.64,11.64,0,0,1,11.24-12h.28a9.44,9.44,0,0,1,7.22,3.09V163.1h4.64Zm-57.77.52a18.75,18.75,0,0,1-12-4.47l2.58-3.44a14.2,14.2,0,0,0,9.12,3.78c5.15,0,6.36-1.89,6.36-2.92,0-2.24-3.44-2.41-7-2.92-4.65-.52-10.83-1.38-10.83-6.88,0-4.13,5-6.88,10.49-6.88a16.13,16.13,0,0,1,10.83,3.61l-2.58,3.61a11.16,11.16,0,0,0-8.09-3.44c-4.12,0-6,1.72-6,2.75,0,2.24,3.44,2.24,7.56,2.92,5.68.69,10.32,1.72,10.32,6.88,0,4.12-4.3,7.39-10.66,7.39M65.69,198H346.45V151.24H65.69Z"/><path id="Path_515" data-name="Path 515" d="M381.52,174.45a7.19,7.19,0,0,0-.52-2.75,6.94,6.94,0,0,0-1.2-2.24,5.33,5.33,0,0,0-1.89-1.54,5.74,5.74,0,0,0-2.58-.52,6.17,6.17,0,0,0-2.58.52,5.33,5.33,0,0,0-1.89,1.54,9.16,9.16,0,0,0-1.21,2.24,7.11,7.11,0,0,0-.34,2.75,13.35,13.35,0,0,0,.34,2.75,7,7,0,0,0,1.21,2.24,5.33,5.33,0,0,0,1.89,1.54,5.74,5.74,0,0,0,2.58.52,7,7,0,0,0,2.58-.52,5.33,5.33,0,0,0,1.89-1.54,9.12,9.12,0,0,0,1.2-2.24,5,5,0,0,0,.52-2.75m-12-8.09a7.13,7.13,0,0,1,2.75-2.75,8.14,8.14,0,0,1,4.12-1,9.1,9.1,0,0,1,7.39,3.44A13.64,13.64,0,0,1,386,169.8a12.94,12.94,0,0,1,0,9.29,10.45,10.45,0,0,1-2.24,3.78,12,12,0,0,1-3.26,2.58,8.2,8.2,0,0,1-4.13.86,8.5,8.5,0,0,1-2.23-.35,6.12,6.12,0,0,1-1.89-.68l-1.55-1a2.61,2.61,0,0,1-1-1.37v10.66H364.5V163.1h5v3.27Z"/><path id="Path_516" data-name="Path 516" d="M400.09,186.14h-5.16v-23h5v4.12a4.1,4.1,0,0,1,1-1.89,11.78,11.78,0,0,1,1.54-1.37,6.28,6.28,0,0,1,1.9-.86,8.46,8.46,0,0,1,2.06-.35h1.37v5.17c-.34,0-.51-.18-.86-.18h-.69a4.81,4.81,0,0,0-2.23.52,4.87,4.87,0,0,0-1.89,1.38,4.09,4.09,0,0,0-1.21,2.06,7.18,7.18,0,0,0-.51,2.75v11.69Z"/><path id="Path_517" data-name="Path 517" d="M430,174.62a13.35,13.35,0,0,0-.34-2.75,9.51,9.51,0,0,0-1.21-2.24,5.33,5.33,0,0,0-1.89-1.54,6.69,6.69,0,0,0-5.16,0,5.42,5.42,0,0,0-1.89,1.54,9.47,9.47,0,0,0-1.2,2.24,7.13,7.13,0,0,0-.34,2.75,12.7,12.7,0,0,0,.34,2.75,9.47,9.47,0,0,0,1.2,2.24,5.42,5.42,0,0,0,1.89,1.54,5.76,5.76,0,0,0,2.58.52,6.17,6.17,0,0,0,2.58-.52,5.33,5.33,0,0,0,1.89-1.54,9.16,9.16,0,0,0,1.21-2.24,14.88,14.88,0,0,0,.34-2.75m5,0a13.34,13.34,0,0,1-.86,4.64,10.41,10.41,0,0,1-2.24,3.79,13,13,0,0,1-3.44,2.58,9.78,9.78,0,0,1-4.46.85,12.16,12.16,0,0,1-4.47-.85,10.77,10.77,0,0,1-3.44-2.58,10.41,10.41,0,0,1-2.24-3.79,13,13,0,0,1,0-9.28,10.29,10.29,0,0,1,2.24-3.78,12.62,12.62,0,0,1,3.44-2.58,9.79,9.79,0,0,1,4.46-.86,12,12,0,0,1,4.47.86,11.15,11.15,0,0,1,5.68,6.36,10.28,10.28,0,0,1,.86,4.64"/></g></g></svg>