<svg id="Layer_1" data-name="Layer 1" xmlns="http://www.w3.org/2000/svg" viewBox="0 0 500 350"><title>Artboard 1 copy 21</title><path id="Path_147" data-name="Path 147" d="M106,168l-4.86,20-35.7-7v-13h35.7Z"/><path id="Path_148" data-name="Path 148" d="M139,168H101.12V140.5L139,147.92l2,10.75Z"/><path id="Path_149" data-name="Path 149" d="M139,195.43,101.12,188v-20H139Z"/><path id="Path_150" data-name="Path 150" d="M139,147.92l35.7,7v13H139Z"/><path id="Path_151" data-name="Path 151" d="M368.63,182.45h5.62V170.53l8.71-17.1h-6.15l-5.34,11.7-5.41-11.7h-6.14l8.71,17.1Z"/><rect id="Rectangle_180" data-name="Rectangle 180" x="400.85" y="153.43" width="5.66" height="29.02"/><rect id="Rectangle_181" data-name="Rectangle 181" x="384.98" y="176.41" width="6.04" height="6.04"/><path id="Path_152" data-name="Path 152" d="M424.37,182.71a10.35,10.35,0,0,0,7.69-3C435,176.78,435,173.52,435,168s-.11-8.81-2.94-11.7a10.16,10.16,0,0,0-7.69-3,10.47,10.47,0,0,0-7.75,3c-2.89,2.89-2.94,6.15-2.94,11.7s.05,8.82,2.94,11.71a10.54,10.54,0,0,0,7.75,3m-3.64-22.92a4.78,4.78,0,0,1,3.64-1.55,4.69,4.69,0,0,1,3.63,1.55c1.07,1.23,1.44,2.62,1.44,8.12s-.37,6.89-1.44,8.12a4.63,4.63,0,0,1-3.63,1.6,4.73,4.73,0,0,1-3.64-1.6c-1.07-1.23-1.39-2.56-1.39-8.12s.32-6.89,1.39-8.12"/><path id="Path_153" data-name="Path 153" d="M263.68,177.31h10.26l1.71,5.14h5.88l-10.59-29h-4.43l-10.53,29h5.88ZM268.92,162l3.53,10.53h-7.22Z"/><path id="Path_154" data-name="Path 154" d="M230.49,165.56l5.56,10.95h3.79l5.56-10.95v16.89H251v-29h-5.56L238,169.14l-7.59-15.71h-5.56v29h5.66Z"/><path id="Path_155" data-name="Path 155" d="M357.94,177.37H344.8V153.43h-5.61v29h18.75Z"/><path id="Path_156" data-name="Path 156" d="M205.59,170.1l3.47.53a4.36,4.36,0,0,1,2.63,1,3.33,3.33,0,0,1,.9,2.4c0,2.3-1.76,3.64-5.18,3.64a9.32,9.32,0,0,1-6.95-2.46l-3.63,3.69c2.83,2.88,6.2,3.84,10.58,3.84,6.09,0,10.74-3.15,10.74-8.82a7.8,7.8,0,0,0-2.25-6.09,9.27,9.27,0,0,0-5.5-2.3l-3.48-.53a4.43,4.43,0,0,1-2.62-1.12,2.77,2.77,0,0,1-.8-2.09c0-2,1.44-3.68,4.44-3.68a8.05,8.05,0,0,1,5.93,2l3.58-3.53c-2.46-2.4-5.35-3.37-9.35-3.37-6.26,0-10.1,3.64-10.1,8.82a7.56,7.56,0,0,0,2.08,5.72,9,9,0,0,0,5.51,2.41"/><path id="Path_157" data-name="Path 157" d="M292.21,170.9h4.06l5.67,11.55h6.52L302,169.94a7.83,7.83,0,0,0,5.29-7.64c0-4.87-3.47-8.87-9.4-8.87H286.55v29h5.66Zm0-12.39h5.35a3.85,3.85,0,0,1,.5,7.69,4.17,4.17,0,0,1-.5,0h-5.35Z"/><path id="Path_158" data-name="Path 158" d="M320,182.45h5.66V158.5h7.54v-5.07H312.41v5.07H320Z"/></svg>