<svg id="Layer_1" data-name="Layer 1" xmlns="http://www.w3.org/2000/svg" xmlns:xlink="http://www.w3.org/1999/xlink" viewBox="0 0 500 350"><defs><style>.cls-1{fill:none;}.cls-2{clip-path:url(#clip-path);}</style><clipPath id="clip-path"><rect class="cls-1" x="162.17" y="87" width="179.3" height="172.4"/></clipPath></defs><title>Artboard 1 copy 8</title><g class="cls-2"><path d="M252.24,116.19a4.88,4.88,0,0,1,2.77.86l46.56,31.7a1.85,1.85,0,0,0,2.89-1.54V92.58A5.58,5.58,0,0,0,298.91,87H204.72a5.57,5.57,0,0,0-5.54,5.58v38.35l55.16,37.29a5.08,5.08,0,0,1,1.52,6.94,4.77,4.77,0,0,1-4,2.19,6.09,6.09,0,0,1-3.12-.85l-46.66-31.56a1.85,1.85,0,0,0-2.88,1.54v28.35c0,2.76,2.22,6.25,4.48,7.81L248,213a8,8,0,0,0,8.28,0l44.11-30.4a10.58,10.58,0,0,0,4.07-7.81V162.78l-55-37.45a5,5,0,0,1-1.33-7,5,5,0,0,1,4.12-2.19m-3.19,21.86,12,8.19a5,5,0,0,1,1.33,6.94,5,5,0,0,1-6.89,1.34l-12-8.19a5,5,0,0,1-1.33-6.94,4.93,4.93,0,0,1,6.89-1.34"/><path d="M249.07,243.83a10,10,0,0,1,2.2,6.85c0,.53,0,.93,0,1.22H238.67a4.46,4.46,0,0,0,4.52,3.54,6.06,6.06,0,0,0,2.38-.48,6.21,6.21,0,0,0,2.05-1.39l2.64,2.69a9,9,0,0,1-3.24,2.31,11,11,0,0,1-4.25.8,10.08,10.08,0,0,1-4.84-1.11,7.87,7.87,0,0,1-3.19-3.15,10.4,10.4,0,0,1,0-9.43,8,8,0,0,1,3.19-3.17,9.5,9.5,0,0,1,4.69-1.14,8.18,8.18,0,0,1,6.43,2.46m-2.52,5.08a4.06,4.06,0,0,0-1.11-2.78,3.74,3.74,0,0,0-2.77-1,3.81,3.81,0,0,0-2.72,1,4.87,4.87,0,0,0-1.38,2.8Z"/><path d="M265.27,258.19a8.21,8.21,0,0,1-2.17.9,9.28,9.28,0,0,1-2.39.31,5.69,5.69,0,0,1-4-1.4,5.22,5.22,0,0,1-1.53-4V245.8h-2.44v-3.47h2.44v-4.86h5v4.86h4.75v3.5h-4.75v7.28c0,1.36.53,2,1.59,2a5.68,5.68,0,0,0,2.44-.65Z"/><path d="M165.49,258.8a11.18,11.18,0,0,1-3.32-1.36l1.69-3.67a10.54,10.54,0,0,0,2.83,1.22,11.7,11.7,0,0,0,3.26.48c2.15,0,3.22-.54,3.22-1.61a1.13,1.13,0,0,0-.88-1.08,13.25,13.25,0,0,0-2.7-.56,24,24,0,0,1-3.55-.75,5.46,5.46,0,0,1-2.42-1.51,4.26,4.26,0,0,1-1-3.08,4.83,4.83,0,0,1,1-3,6.11,6.11,0,0,1,2.8-2,11.94,11.94,0,0,1,4.35-.72,17.1,17.1,0,0,1,3.69.41,10.29,10.29,0,0,1,3.05,1.13l-1.7,3.64a10,10,0,0,0-5-1.31,5.1,5.1,0,0,0-2.45.46,1.33,1.33,0,0,0-.81,1.18,1.17,1.17,0,0,0,.88,1.14,15.6,15.6,0,0,0,2.8.63,28.53,28.53,0,0,1,3.52.77,5.23,5.23,0,0,1,2.37,1.49,4.2,4.2,0,0,1,1,3,4.67,4.67,0,0,1-1,2.92,6.34,6.34,0,0,1-2.85,2,12.63,12.63,0,0,1-4.45.71,16.92,16.92,0,0,1-4.26-.54"/><path d="M184.29,258.18a8.71,8.71,0,0,1-3.44-3.23,9.56,9.56,0,0,1,0-9.38,8.64,8.64,0,0,1,3.44-3.23,11.16,11.16,0,0,1,9.91,0,8.59,8.59,0,0,1,3.42,3.23,9.49,9.49,0,0,1,0,9.38,8.66,8.66,0,0,1-3.42,3.23,11.16,11.16,0,0,1-9.91,0m8.17-4.36a5.69,5.69,0,0,0,0-7.12,4.22,4.22,0,0,0-3.21-1.33A4.29,4.29,0,0,0,186,246.7a5.62,5.62,0,0,0,0,7.12,4.28,4.28,0,0,0,3.22,1.32,4.21,4.21,0,0,0,3.21-1.32"/><path d="M229.11,243.13q1.94,2,1.94,5.85v10.1H226v-9.31a4.81,4.81,0,0,0-.86-3.13,3,3,0,0,0-2.46-1,3.58,3.58,0,0,0-2.83,1.17,5,5,0,0,0-1,3.46v8.85h-5.08v-9.31c0-2.78-1.1-4.17-3.32-4.17a3.57,3.57,0,0,0-2.8,1.17,5.06,5.06,0,0,0-1,3.46v8.85h-5.08V241.44h4.86v2a6.33,6.33,0,0,1,2.39-1.7,7.87,7.87,0,0,1,3.11-.59,7.39,7.39,0,0,1,3.35.74,5.93,5.93,0,0,1,2.41,2.14,7.15,7.15,0,0,1,2.72-2.13,8.53,8.53,0,0,1,3.6-.75,7,7,0,0,1,5.22,1.95"/><path d="M286.16,241.44v17.64h-4.82V257a6.83,6.83,0,0,1-2.41,1.75,8.25,8.25,0,0,1-8.5-1.39c-1.34-1.33-2-3.31-2-5.93v-10h5.08v9.21q0,4.26,3.55,4.26a3.79,3.79,0,0,0,2.93-1.19,5.08,5.08,0,0,0,1.11-3.56v-8.72Z"/><path d="M298,241.83a9.19,9.19,0,0,1,3.56-.65v4.72c-.56-.05-.94-.07-1.14-.07a4.65,4.65,0,0,0-3.42,1.23,5,5,0,0,0-1.23,3.69v8.33h-5.08V241.44h4.85v2.33a5.73,5.73,0,0,1,2.46-1.94"/><polygon points="322.33 241.44 314.94 259.08 309.69 259.08 302.34 241.44 307.58 241.44 312.43 253.44 317.44 241.44 322.33 241.44"/><path d="M341.47,241.44v17.64h-4.85v-2a6.68,6.68,0,0,1-5.47,2.3,9,9,0,0,1-4.48-1.12,8,8,0,0,1-3.14-3.17,10.63,10.63,0,0,1,0-9.58,8.07,8.07,0,0,1,3.14-3.18,9.1,9.1,0,0,1,4.48-1.11,6.65,6.65,0,0,1,5.24,2.13v-1.87Zm-6.25,12.38a5.62,5.62,0,0,0,0-7.12,4.26,4.26,0,0,0-3.19-1.33,4.31,4.31,0,0,0-3.23,1.33,5.62,5.62,0,0,0,0,7.12,4.3,4.3,0,0,0,3.23,1.32,4.25,4.25,0,0,0,3.19-1.32"/></g></svg>